<?xml version="1.0" encoding="UTF-8" standalone="no"?>
<svg
   id="svg"
   version="1.1"
   width="264"
   height="264"
   viewBox="0 0 264 264"
   sodipodi:docname="realdrissog.svg"
   inkscape:version="1.2.2 (732a01da63, 2022-12-09)"
   xmlns:inkscape="http://www.inkscape.org/namespaces/inkscape"
   xmlns:sodipodi="http://sodipodi.sourceforge.net/DTD/sodipodi-0.dtd"
   xmlns="http://www.w3.org/2000/svg"
   xmlns:svg="http://www.w3.org/2000/svg">
  <defs
     id="defs9" />
  <sodipodi:namedview
     id="namedview7"
     pagecolor="#ffffff"
     bordercolor="#000000"
     borderopacity="0.25"
     inkscape:showpageshadow="2"
     inkscape:pageopacity="0.0"
     inkscape:pagecheckerboard="0"
     inkscape:deskcolor="#d1d1d1"
     showgrid="false" />
  <path
     id="path1384"
     style="opacity:0.96;fill:#34d39b;fill-opacity:1;stroke-width:6.30898"
     d="M 264,131.99999 A 132,132 0 0 1 132,264 132,132 0 0 1 0,132 132,132 0 0 1 132,2e-6 132,132 0 0 1 264,131.99999 Z"
     inkscape:export-filename="..\..\..\RealDriss\about\1.png"
     inkscape:export-xdpi="96"
     inkscape:export-ydpi="96" />
  <g
     id="svgg"
     inkscape:export-filename="svgg.png"
     inkscape:export-xdpi="96"
     inkscape:export-ydpi="96"
     transform="matrix(0.75923055,0,0,0.75923055,-17.305392,-23.626184)"
     inkscape:transform-center-x="-12.776867"
     inkscape:transform-center-y="-8.6439214">
    <path
       id="path1"
       d="m 192.2,169.165 c -7.322,1.446 -15.428,4.828 -19.391,8.09 -0.765,0.63 -1.536,1.145 -1.714,1.145 -0.177,0 -1.621,0.872 -3.209,1.937 -1.587,1.066 -4.506,2.981 -6.486,4.255 -1.98,1.275 -4.32,2.808 -5.2,3.408 -0.88,0.599 -2.14,1.367 -2.8,1.707 -0.66,0.339 -1.65,1.011 -2.2,1.493 -0.55,0.482 -1.54,1.156 -2.2,1.497 -0.66,0.342 -2.73,1.65 -4.6,2.907 -1.87,1.256 -4.435,2.937 -5.7,3.735 -3.198,2.017 -3.564,1.011 5.2,14.267 2.035,3.078 3.7,5.693 3.7,5.812 0,0.119 1.125,1.842 2.5,3.83 1.375,1.987 2.68,3.917 2.9,4.288 1.887,3.185 4.626,7.411 13.634,21.044 1.301,1.97 2.636,4.04 2.966,4.601 0.33,0.561 1.429,2.28 2.442,3.82 1.014,1.539 2.711,4.149 3.773,5.799 1.061,1.65 3.147,4.841 4.634,7.091 1.487,2.251 4.454,6.841 6.592,10.2 3.426,5.385 10.634,16.44 13.989,21.459 0.644,0.962 1.518,2.312 1.944,3 1.092,1.764 5.335,8.291 6.013,9.25 0.311,0.44 0.995,1.43 1.52,2.2 1.374,2.016 3.128,1.295 12.193,-5.011 1.309,-0.911 1.123,-2.334 -0.642,-4.925 -2.526,-3.71 -6.175,-9.232 -7.458,-11.287 -3.224,-5.165 -4.625,-7.343 -7.973,-12.399 -3.271,-4.938 -5.892,-8.968 -10.904,-16.768 -2.475,-3.852 -2.158,-4.725 2.677,-7.378 1.191,-0.654 6.913,-4.315 12.022,-7.692 1.979,-1.309 3.537,-1.181 7.525,0.616 6.953,3.134 7.905,3.561 10.653,4.774 1.54,0.679 3.97,1.676 5.4,2.214 2.584,0.973 7.241,2.984 12.6,5.441 4.605,2.112 5.06,2.311 8.6,3.76 8.535,3.495 13.516,5.624 16.898,7.224 3.605,1.706 4.199,1.7 6.909,-0.061 1.316,-0.855 4.193,-2.705 6.393,-4.111 6.708,-4.285 6.764,-3.864 -0.932,-6.944 -3.007,-1.204 -7.628,-3.116 -10.268,-4.249 -2.64,-1.134 -6.33,-2.666 -8.2,-3.405 -4.268,-1.687 -7.197,-2.924 -8.095,-3.417 -0.382,-0.211 -1.372,-0.633 -2.2,-0.94 -2.242,-0.831 -5.042,-1.962 -9.505,-3.838 -2.2,-0.924 -5.89,-2.456 -8.2,-3.404 -12.374,-5.076 -11.995,-4.675 -8.428,-8.934 9.102,-10.868 13.072,-29.899 8.202,-39.317 -0.309,-0.596 -0.953,-2.133 -1.433,-3.416 -3.947,-10.548 -13.683,-19.141 -25.541,-22.541 -3.261,-0.934 -15.337,-1.472 -18.6,-0.827 m 14.4,15.446 c 3.561,1.226 4.314,1.64 7.2,3.961 15.487,12.453 14.634,31.284 -2,44.148 -0.477,0.369 -5.588,3.72 -11.4,7.474 -2.31,1.492 -6.34,4.128 -8.957,5.859 -6.162,4.077 -6.105,4.089 -9.881,-2.141 -2.444,-4.032 -5.048,-8.085 -6.194,-9.64 -0.677,-0.92 -3.07,-4.552 -5.317,-8.072 -2.247,-3.52 -5.341,-8.29 -6.875,-10.6 -1.535,-2.31 -2.912,-4.47 -3.06,-4.8 -0.149,-0.33 -0.866,-1.431 -1.593,-2.448 -2.139,-2.987 -1.58,-3.739 6.356,-8.552 0.362,-0.22 2.513,-1.66 4.779,-3.2 2.266,-1.54 4.305,-2.874 4.531,-2.963 0.226,-0.09 2.706,-1.668 5.51,-3.506 11.171,-7.323 17.743,-8.671 26.901,-5.52"
       stroke="none"
       fill="#050b08"
       fill-rule="evenodd" />
    <path
       id="path2"
       d="m 190,73.191 c -0.426,0.27 -0.592,1.049 -0.573,2.694 0.708,60.003 1.214,84.411 1.772,85.313 0.378,0.612 7.331,1.053 10.09,0.64 l 1.77,-0.266 0.531,-44.025 c 0.454,-37.716 0.45,-44.076 -0.03,-44.38 -0.753,-0.477 -12.801,-0.455 -13.56,0.024 m 3.368,116.8 c -4.449,0.937 -9.892,5.161 -11.195,8.686 -0.391,1.058 -0.856,2.116 -1.033,2.353 -0.597,0.798 -0.85,5.968 -0.394,8.091 2.805,13.081 18.342,18.054 27.21,8.708 0.746,-0.786 1.491,-1.429 1.657,-1.429 0.98,0 3.587,-7.073 3.587,-9.733 0,-10.477 -9.868,-18.774 -19.832,-16.676"
       stroke="none"
       fill="#f5fbf9"
       fill-rule="evenodd" />
  </g>
</svg>
